<?xml version="1.0" encoding="utf-8"?>
<!-- Generator: Adobe Illustrator 22.0.1, SVG Export Plug-In . SVG Version: 6.00 Build 0)  -->
<svg version="1.1" id="圖層_1" xmlns="http://www.w3.org/2000/svg" xmlns:xlink="http://www.w3.org/1999/xlink" x="0px" y="0px"
	 viewBox="0 0 741.9 184.4" style="enable-background:new 0 0 741.9 184.4;" xml:space="preserve">
<style type="text/css">
	.st0{fill:#00AFBE;stroke:#00AFBE;stroke-width:1.5933;stroke-miterlimit:10;}
	.st1{fill:#EB7879;}
	.st2{fill:none;stroke:#00AFBE;stroke-width:2.7883;stroke-miterlimit:10;}
	.st3{fill:#00AFBE;}
</style>
<g>
	<g>
		<path class="st0" d="M307.5,103.1V131c0,6.4-1,9.9-4.6,12c-3.4,2.2-8.5,2.7-15.7,2.7c-0.3-3.5-1.9-9.1-3.6-12.9
			c4.2,0.2,8,0.2,9.4,0.1c1.4,0,1.9-0.3,1.9-1.9v-23.5l-9.6,3.4L282,97.8c3.7-1,8-2.3,12.9-3.8V73.2h-11.3V60.4h11.3V38.7h12.7v21.7
			h8.1v12.8h-8.1v16.6l7.7-2.6l2.3,12.2L307.5,103.1z M384.5,104.2c-4.3,10.2-10.7,18.2-18.8,24.5c7.8,2.8,16.6,4.9,26.2,6
			c-2.9,2.9-6.6,8.5-8.5,12.2c-11.8-2-22.3-5.3-31.3-10c-10.2,4.9-21.9,8-34.7,10.1c-1-3.5-3.8-9.1-6-12.2
			c10.2-1.2,19.7-3.3,28.1-6.3c-5.1-4.2-9.6-9.1-13.4-14.5l5-1.7H318v-11.5h27.2V38.7h13v62.1h15.3l2.3-0.5L384.5,104.2z M342.3,95
			h-23V50.4c5.2-1.9,13-6,17.4-8.9l8.4,10c-4.6,1.9-9.5,3.6-13.8,5v8.8h10.4v11.1h-10.4v7.2h11V95z M339.9,112.3
			c3.1,3.9,7.4,7.3,12.4,10.2c4.9-2.9,9.1-6.2,12.5-10.2H339.9z M385.1,95.2h-23.7V83.8h11.8v-7.3h-11.4V65.3h11.4v-7.2h-11.8V46.7
			h23.7V95.2z"/>
		<path class="st0" d="M470.3,131.6c12.4,2.9,27.1,6.7,35.5,9.8l-16.4,6c-6.7-2.8-18.8-6.5-31.3-9.5l11.5-6.3h-34.7l10.3,4.9
			c-10,4.5-25.4,8.4-37.3,10.6c-2.3-2.7-7-7.2-9.8-9.3c11.6-1.3,24.6-3.5,33.1-6.2h-17.4V91.5h77.4v40.1H470.3z M444.7,53h-43.1V44
			h43.1v-5.6h13.6V44h43.9V53h-43.9v3.6h36.3v8.1h-84.4v-8.1h34.5V53z M407.2,68H497v20.2h-89.9V68z M419.3,80.6h13.9v-5.1h-13.9
			V80.6z M427.4,102.7h49.9v-3.9h-49.9V102.7z M427.4,113.5h49.9v-3.9h-49.9V113.5z M427.4,124.4h49.9v-4.1h-49.9V124.4z
			 M444.3,80.6h14.2v-5.1h-14.2V80.6z M469.5,80.6h14.6v-5.1h-14.6V80.6z"/>
		<path class="st0" d="M618.5,61.2h-34l10.9,2.2c-2.3,4.2-4.9,8.2-7.2,11.8h25V134c0,6.2-1.5,8.8-5.8,10.4
			c-4.2,1.6-10.4,1.7-19.7,1.7c-0.6-3-2.1-7.3-3.7-10.1c5.6,0.2,12.2,0.2,13.9,0.1c1.9,0,2.6-0.6,2.6-2.3V86.4h-18v3
			c0,2.2,0.2,3.3,2.2,3.3h5.7c1.7,0,5.2-0.2,6.7-0.7c0.1,3.1,0.3,6,0.8,9.2c-1.6,0.6-4.8,0.8-7.3,0.8h-9.3c-9.4,0-11-4.4-11-12.7
			v-2.9h-8.2c-1.4,8.6-5,14.2-15.1,17.9h42v28.3h-33.6v4.8h-11.5v-32c-1.4,0.3-2.8,0.7-4.4,1c-0.8-2.6-3.3-6.4-5.5-8.6v48.8h-13.2
			V75.3h23.9c-1.3-3.5-3.5-8-5.3-11.6l7.7-2.4h-31.7V49.6H561c-0.7-3-1.7-6-2.7-8.7l13.4-3.4c1.4,3.7,3,8.2,4.1,12.1h42.7V61.2z
			 M533.9,97c10.8-1.9,14.5-5,15.9-10.6h-15.9V97z M575.3,75.3c2.3-4.4,4.8-9.8,6-14H552c2.1,3.8,4.5,8.4,5.8,11.4l-7.4,2.7H575.3z
			 M555.3,113.8v9.3h22.5v-9.3H555.3z"/>
		<path class="st0" d="M734.3,80.9c-3.7,15.2-8.8,28.7-15.9,39.8c1.9,7.7,3.9,12.1,6.2,12.1c1.7,0,2.7-5.5,3-17.3
			c2.6,2.9,6.5,5.9,9.6,7.2c-1.7,17.9-5.3,22.9-14.3,22.9c-5.7,0-10.1-4.9-13.5-12.9c-4.8,5.6-10.2,10.3-16.3,14.4
			c-1.9-2.3-6.7-7.2-9.6-9.2c8.6-5.1,15.7-11.6,21.6-19.6c-3-14-4.6-32.2-5.5-51.2h-22.6v12.5h20.7c0,0,0,3.1-0.1,4.6
			c-0.3,25.9-0.8,36.2-3.1,39.4c-1.9,2.6-3.6,3.6-6.4,4.1c-2.3,0.5-6,0.6-10,0.5c-0.3-3.5-1.3-8-2.9-10.9
			c-1.9,11.1-5.6,22.1-13,30.1c-1.9-2.3-7.1-6.7-10-8.5c4.6-5.2,7.7-11.6,9.3-18.1c-10.2,4.2-21.1,8.7-30,12.3l-4.4-13.8
			c3.5-0.9,7.5-2.3,12.1-3.8V78.8h-10.1V66h10.1V40H652v26h9.1v12.8H652v32l8.9-3.1l1.6,8.5c1.6-7.8,1.9-16,1.9-23.1V54.5h34.9
			c-0.1-5.5-0.2-10.8-0.2-16.1h13c-0.1,5.5-0.1,10.8,0,16.1h9.1c-2.3-3.6-5.7-7.8-8.8-11l9.4-5.6c4.3,4.1,9.2,9.8,11.3,13.6l-4.9,3
			h6.4V67h-22.2c0.6,12.2,1.4,23.7,2.7,33.6c2.9-6.7,5.1-14.2,6.8-22.1L734.3,80.9z M677.1,90.7V93c0,7.2-0.3,15.6-1.7,23.8
			c2.9,0.3,5.1,0.3,6.4,0.3s2.1-0.3,2.9-1.4c1-1.7,1.4-7.9,1.6-25.1H677.1z"/>
	</g>
	<g id="圖層_1_2_" transform="translate(-18.229 -17.468)">
		<g id="Group_744_1_">
			<path id="Path_299_1_" class="st1" d="M97.8,113.6"/>
			<line id="Line_41_1_" class="st2" x1="55.9" y1="126" x2="18.2" y2="126"/>
			<line id="Line_42_1_" class="st2" x1="57.6" y1="137.3" x2="20.3" y2="142.3"/>
			<line id="Line_43_1_" class="st2" x1="64" y1="149.4" x2="29.3" y2="163.9"/>
			<path id="Subtraction_6_1_" class="st3" d="M241.3,200.7c-0.1,0-0.2,0-0.3-0.1c-0.8-0.3-0.6-2.2-0.3-4.3l0,0
				c0.1-1.1,0.2-2.4,0.3-3.5c0-5.6-2.8-10.7-5.2-13.8c-1.5-1.9-3.1-3.6-4.8-5.2c-1.5-1.3-3.1-2.5-4.8-3.4c-2.5-1.4-5.3-2.1-8.1-2
				c-3.3,0.1-6.6,0.7-9.6,1.7c-3.5,1.1-7.3,2.6-11.8,4.3l0,0c-3.4,1.3-7.4,2.9-11.6,4.4c-1,0.3-2,0.7-3,1l-0.1,0.1
				c-6.7,2.4-15.1,5.4-24.3,7.8c-10.7,2.8-20.4,4.2-29.6,4.2c-1.2,0-2.4,0-3.5-0.1c-8.3-0.3-19.6-0.8-31.2-3.8
				c-5.9-1.5-11.7-3.7-17.1-6.6c-2.9-1.5-5.6-3.3-8.1-5.2c-2.7-2-5.2-4.3-7.5-6.8c-2.9-3.1-5.4-6.4-7.5-10c-2.1-3.4-3.9-7-5.4-10.8
				c-2.8-7.1-4.6-14.5-5.6-22.1c-1.9-14.3-0.7-26.9-0.1-32.3l0,0c0.2-2.6,0.6-4.4,1-6.8c0.6-3.6,1.5-8.4,2.6-18.8
				c0.3-2.9,0.5-5.6,0.8-8.2v-0.1l0,0c0.6-6.3,1-11.7,1.8-15.6c0.3-1.6,0.8-3.1,1.4-4.6c0.6-1.2,1.3-1.8,2.2-2
				c0.1,0,0.3-0.1,0.3-0.1c1.6,0,2.9,2,4.6,4.7c2.4,3.8,5.8,9,12.1,11.9c2,0.9,4.1,1.3,6.3,1.2c3,0,7.2-0.4,13.7-1.4
				c0.1,2.5,0.3,4.9,1,7.4c0.5,1.8,1.1,3,1.5,3l0,0c0.8-0.1,1.3-5.5,1.3-10.9c1-0.1,2.4-0.4,4-0.6c1.9-0.3,3.7-0.6,5.4-0.9
				c-0.3,3.1-0.2,6.1,0.3,9.2c0.3,2.4,1,4.3,1.5,4.9c0.1,0.1,0.2,0.1,0.3,0.2l0,0c1-0.1,2-7.7,2.2-15.1c8.9-1.6,15-3,18.7-4.3
				c3.1-1.1,4.2-2,4.9-2.8c2.6-2.7,4.4-5.9,5.4-9.5c0.9-3.1,1.5-6.2,1.9-9.3c0.6-3.9,0.9-6.7,2.6-7c0.1,0,0.1,0,0.1,0
				c1.1,0,2.1,2.2,3.4,5.2l0,0c1.2,2.9,2.6,5.7,4.3,8.4c2,3.3,4.6,6.1,7.7,8.2c2.5,1.8,5.4,2.9,8.5,3.4c3.5,0.5,7,0.7,10.5,0.6h0.1
				c2.2,0.1,4.6,0.1,7.3,0.2c7,0.3,12.8,0.9,16.5,1.3c4.6,0.6,8.9,1.3,12.7,2c4.1,0.8,8.2,2,12.1,3.4c6.7,2.6,12.8,6.5,18,11.5
				c4.7,4.5,8.9,9.7,12.3,15.3c2.9,4.7,5.4,9.5,7.5,14.6c1.8,4.3,2.9,7.5,3.5,9.3l0,0c0.8,2.5,1.3,5,1.8,7.6
				c1.2,6.7,1.7,13.5,1.5,20.2c-0.2,9.8-1.7,19.6-4.3,29.1c-1.6,5.7-3.7,11.3-6.1,16.7c-2.8,6.1-6.1,11.9-9.8,17.4
				c-0.5,0.8-1.7,2.5-2.9,4C243.2,199.7,242,200.7,241.3,200.7z M93.6,125.2l-3.1,1c0.1,1.5,0.5,3,1.1,4.5c0.5,1.2,1.1,2.3,2,3.2
				c1,1,2.2,1.6,3.6,1.7h0.3l0,0c0.3,0,0.6,0.1,0.8,0.1c1.1-0.1,2.2-0.3,3.3-0.7c1.1-0.3,2.1-0.9,2.9-1.7c0.8-0.8,1.5-1.7,2.1-2.6
				c0.7-1.1,1.3-2.3,1.7-3.6c0.8,0.9,1.6,1.7,2.5,2.4c1.4,1.1,3.5,2.4,5.6,2.4c0.1,0,0.2,0,0.3,0c0.1,0,0.1,0,0.2,0
				c1.6,0,4-0.9,4.9-1.9c0.9-0.6,1.5-1.4,1.7-2.4c0.3-1.2,0.4-2.4,0.3-3.6c-0.1-1.6-0.2-3.2-0.6-4.7l-3,0.7l0,0l0,0
				c0.3,1.1,0.4,2.3,0.3,3.5c0,0.9-0.2,1.9-0.6,2.7c-0.4,0.9-1.1,1.5-2,1.9c-0.5,0.1-1,0.2-1.5,0.2c-1.1,0-2.2-0.3-3.2-0.9
				c-0.8-0.5-1.6-1.2-2.3-2c-0.7-0.8-1.3-1.8-1.8-2.9l-1.7,0.3l-1.7,0.3l0,0c-0.9,2.4-2.2,4.7-3.7,6.8c-1.1,1.4-2.2,2-3.5,2
				c-0.2,0-0.4,0-0.6-0.1c-0.9-0.1-1.7-0.6-2.4-1.3c-0.6-0.7-1-1.5-1.3-2.3C93.9,127.5,93.7,126.3,93.6,125.2L93.6,125.2z
				 M196.7,66.5c-17.8,0-32.2,14.5-32.2,32.3S179,131,196.7,131S229,116.5,229,98.7c0-13-7.8-24.6-19.7-29.6
				C205.3,67.4,201,66.5,196.7,66.5L196.7,66.5z M83.5,108.1c-2.8,0-5,2.2-5,5s2.2,5,5,5s5-2.2,5-5l0,0
				C88.6,110.4,86.3,108.1,83.5,108.1L83.5,108.1z M124.7,101.2c-2.8,0-5,2.2-5,5c0,2.8,2.2,5,5,5c2.8,0,5-2.2,5-5
				C129.8,103.4,127.5,101.2,124.7,101.2L124.7,101.2z"/>
			<g id="Group_743_1_">
				<g id="Group_742_1_">
					<path id="Path_305_1_" class="st3" d="M183.2,107c1,0.3,2,0.6,2.9,0.7c1,0.2,2,0.4,2.9,0.5c1.1,0.1,2.2,0.2,3.3,0.2
						c2,0,2.9-0.7,2.9-2.2c-0.1-0.7-0.3-1.3-0.9-1.7c-0.7-0.7-1.5-1.3-2.3-2c-0.9-0.7-1.9-1.5-2.9-2.4s-2.1-1.9-2.9-2.9
						c-0.9-1.1-1.7-2.4-2.3-3.8c-0.6-1.5-0.9-3.1-0.9-4.7c-0.1-1.8,0.3-3.6,1.1-5.3c0.7-1.5,1.7-2.8,3-3.8c1.3-1,2.9-1.9,4.5-2.4
						c1.8-0.6,3.7-0.8,5.6-0.8c1,0,2,0.1,3.1,0.1l2.8,0.3c0.9,0.1,1.9,0.3,2.8,0.4v12c-0.3-0.1-0.7-0.1-1.2-0.1
						c-0.3-0.1-0.7-0.1-1.2-0.1c-0.4-0.1-0.9-0.1-1.3-0.1c-0.3,0-0.6,0-1,0c-0.3,0-0.8,0.1-1.1,0.1c-0.3,0.1-0.6,0.2-0.9,0.4
						c-0.3,0.2-0.4,0.6-0.4,0.9s0.3,0.8,0.8,1.3c0.6,0.5,1.3,1.1,2.1,1.8s1.7,1.5,2.8,2.4c1,0.9,2,2,2.8,3.1
						c0.8,1.2,1.6,2.5,2.1,3.9c0.6,1.5,0.9,3.2,0.8,4.9c0,1.8-0.3,3.6-0.9,5.3c-0.6,1.6-1.5,3.1-2.8,4.3c-1.4,1.3-3.1,2.3-4.8,2.9
						c-2.2,0.8-4.6,1.1-7,1c-1.5,0-3-0.1-4.5-0.2c-1.4-0.1-2.6-0.3-3.7-0.6c-1.1-0.2-2.3-0.4-3.4-0.8L183.2,107z M188.5,114.7
						c0.6,0.1,1.3,0.2,2,0.3c0.6,0.1,1.3,0.1,1.9,0.2s1.3,0.1,2,0.1c1.2,0,2.4-0.1,3.5-0.4c1.1-0.3,2.2-0.7,3.1-1.4
						c0.9-0.6,1.6-1.5,2.2-2.4c0.6-1.1,0.8-2.4,0.8-3.7c0-1.3-0.3-2.4-0.9-3.6c-0.6-1.2-1.5-2.2-2.4-3.2c-1-1-2-2-3.1-2.9
						c-1.1-0.9-2.1-1.9-3.1-2.9c-0.9-0.9-1.7-1.8-2.4-2.9c-0.6-0.9-0.9-2-0.9-3c-0.1-1.3,0.5-2.6,1.5-3.6c1-0.8,2.6-1.3,4.7-1.3
						c0.3,0,0.7,0,1,0c0.3,0,0.7,0.1,1,0.1c0.3,0.1,0.7,0.1,1,0.1v-1.7c-0.3,0-0.6,0-1-0.1c-0.3-0.1-0.6-0.1-1-0.1
						c-0.3,0-0.8,0-1.1,0c-2-0.1-4,0.5-5.7,1.6c-1.5,1-2.2,2.6-2.2,4.9c0,1.2,0.3,2.4,0.9,3.3c0.7,1.1,1.5,2.2,2.4,3.1
						c1,1,2,2,3.1,2.9c1.1,0.9,2.1,1.9,3.1,2.9c0.9,0.9,1.7,1.9,2.4,3c0.6,1,0.9,2.1,0.9,3.2c0.1,1.8-0.7,3.6-2.1,4.7
						c-1.4,1-3.3,1.6-5.7,1.6c-1.3,0-2.6-0.1-4-0.3c-0.6-0.1-1.3-0.2-1.9-0.3L188.5,114.7z"/>
				</g>
				<path id="Rectangle_1734_1_" class="st3" d="M195.6,69.9L195.6,69.9c0.6,0,1.2,0.6,1.2,1.2v5.3c0,0.6-0.6,1.2-1.2,1.2l0,0
					c-0.6,0-1.2-0.6-1.2-1.2v-5.3C194.4,70.4,194.9,69.9,195.6,69.9z"/>
				<path id="Rectangle_1735_1_" class="st3" d="M195.3,120.3L195.3,120.3c0.6,0,1.2,0.6,1.2,1.2v5.3c0,0.6-0.6,1.2-1.2,1.2l0,0
					c-0.6,0-1.2-0.6-1.2-1.2v-5.3C194.1,120.8,194.7,120.3,195.3,120.3z"/>
			</g>
		</g>
	</g>
</g>
</svg>
